# xmcd CD database file
#
# Track frame offsets:
#	150
#	29479
#	56121
#	76244
#	102333
#	115727
#	150223
#	178548
#	219094
#	244286
#	269379
#	296564
#	327538
#
# Disc length: 4759 seconds
#
# Revision: 0
# Processed by: cddbd v1.4PL0 Copyright (c) Steve Scherf et al.
# Submitted via: CDex 1.50Beta7
#
DISCID=b212950d
DTITLE=Various Artist - Chillosophy
DYEAR=2003
DGENRE=New Age
TTITLE0=Omnimotion - Life hymn in dub
TTITLE1=Ooze - Snowflower
TTITLE2=Jens Buchert - Reflections
TTITLE3=Ticon - The first moment
TTITLE4=Legion of green men - Hotbox highway
TTITLE5=Stressassassin - Martial Meditation
TTITLE6=Spirit Jack - Nano-X
TTITLE7=Vibrasphere - Manzanilla
TTITLE8=Foxglove - Part of you
TTITLE9=Son Kite - Million Wishes
TTITLE10=Aztech - Manifesto
TTITLE11=Mere Mortals - Aloft
TTITLE12=El  LCD - Sno pa hisingen
EXTD=YEAR: 2003
EXTT0=
EXTT1=
EXTT2=
EXTT3=
EXTT4=
EXTT5=
EXTT6=
EXTT7=
EXTT8=
EXTT9=
EXTT10=
EXTT11=
EXTT12=
PLAYORDER=
